<?xml version="1.0" encoding="iso-8859-1"?>
<!-- Generator: Adobe Illustrator 19.0.0, SVG Export Plug-In . SVG Version: 6.00 Build 0)  -->
<svg version="1.1" id="Capa_1" xmlns="http://www.w3.org/2000/svg" xmlns:xlink="http://www.w3.org/1999/xlink" x="0px" y="0px"
	 viewBox="0 0 450.81 450.81" style="enable-background:new 0 0 450.81 450.81;" xml:space="preserve">
<g>
	<g>
		<path d="M309.97,344.412c-1.702-0.012-3.402,0.094-5.089,0.318c-20.06,2.665-34.161,21.086-31.496,41.146
			c2.406,18.111,17.786,31.682,36.056,31.814c20.235,0.146,36.758-16.139,36.904-36.374S330.205,344.559,309.97,344.412z
			 M310.398,401.686c-11.398,0.176-20.78-8.921-20.956-20.319c-0.072-4.684,1.451-9.253,4.319-12.956h-0.32
			c3.302-4.394,8.231-7.277,13.68-8h2.64c11.398-0.176,20.78,8.921,20.956,20.319C330.893,392.127,321.795,401.509,310.398,401.686z
			"/>
	</g>
</g>
<g>
	<g>
		<path d="M378.613,372.144c-4.875-38.262-39.844-65.328-78.107-60.453c-4.524,0.576-8.981,1.595-13.306,3.04l-29.52-58.64
			l2.32-2.96c40.88-53.12,109.36-142.08,100-205.36c-2.581-18.664-12.924-35.369-28.48-46c-3.441-2.772-8.477-2.23-11.249,1.211
			c-0.431,0.535-0.791,1.122-1.071,1.749l-93.92,187.28L130.96,4.73c-1.978-3.951-6.784-5.551-10.735-3.573
			c-0.357,0.178-0.699,0.383-1.025,0.613c-15.556,10.631-25.899,27.336-28.48,46c-9.36,63.28,59.12,152,100,205.28l2.32,3.04
			l-29.52,58.64c-36.602-12.168-76.138,7.64-88.306,44.242c-12.168,36.602,7.64,76.138,44.242,88.306
			c4.21,1.4,8.544,2.395,12.944,2.972c2.945,0.371,5.911,0.558,8.88,0.56c38.571-0.073,69.78-31.401,69.707-69.973
			c-0.024-12.45-3.375-24.668-9.707-35.387c9.173-16.48,17.173-30.507,24-42.08c6.88,11.6,15.04,25.84,24,42.08
			c-19.617,33.21-8.598,76.036,24.613,95.653c10.72,6.332,22.937,9.683,35.387,9.707c2.969-0.002,5.935-0.189,8.88-0.56
			C356.422,445.376,383.488,410.406,378.613,372.144z M106.56,50.09c1.455-11.103,6.613-21.391,14.64-29.2l95.12,188.96l-15.28,30.4
			C161.44,188.81,98.32,105.53,106.56,50.09z M184.88,341.77c-1.468,2.65-1.313,5.902,0.4,8.4
			c16.936,24.441,10.851,57.983-13.589,74.919c-24.441,16.936-57.983,10.851-74.919-13.589
			c-7.546-10.891-10.812-24.182-9.172-37.329l0.08,0c3.418-26.884,26.259-47.055,53.36-47.12c2.299-0.012,4.597,0.122,6.88,0.4
			c5.542,0.706,10.94,2.271,16,4.64c3.935,1.846,8.624,0.212,10.56-3.68L329.36,20.89c8.027,7.809,13.185,18.097,14.64,29.2
			c8,56.56-57.52,142.08-96.88,193.2c-6.08,8-11.6,15.04-16,21.04C219.84,279.69,199.76,314.89,184.88,341.77z M333.027,430.03
			c-27.023,12.721-59.242,1.127-71.963-25.896c-8.213-17.446-6.515-37.946,4.456-53.803c1.713-2.498,1.868-5.75,0.4-8.4
			c-12.16-22-22.56-40-30.96-53.92c3.68-5.84,6.88-10.64,9.36-14l2.72-3.6l29.36,58.08c1.936,3.892,6.625,5.526,10.56,3.68
			c27.023-12.721,59.242-1.127,71.963,25.896C371.644,385.09,360.05,417.309,333.027,430.03z"/>
	</g>
</g>
<g>
	<g>
		<path d="M145.412,344.637c-20.092-2.404-38.329,11.935-40.733,32.028c-2.393,20.004,11.813,38.187,31.801,40.705
			c20.077,2.529,38.403-11.696,40.932-31.773c0.01-0.076,0.019-0.151,0.028-0.227C179.844,365.278,165.505,347.041,145.412,344.637z
			 M161.51,383.539c-1.419,11.31-11.738,19.329-23.049,17.91c-11.31-1.419-19.329-11.738-17.91-23.049
			c0.003-0.023,0.006-0.047,0.009-0.07l-0.08,0.16c1.328-10.297,10.098-18.005,20.48-18h2.64
			C154.911,361.909,162.929,372.229,161.51,383.539z"/>
	</g>
</g>
<g>
	<g>
		<circle cx="225.28" cy="252.17" r="6.56"/>
	</g>
</g>
<g>
</g>
<g>
</g>
<g>
</g>
<g>
</g>
<g>
</g>
<g>
</g>
<g>
</g>
<g>
</g>
<g>
</g>
<g>
</g>
<g>
</g>
<g>
</g>
<g>
</g>
<g>
</g>
<g>
</g>
</svg>
